# xmcd
#
# Track frame offsets:
#       150
#       12192
#       24500
#       35792
#       48246
#       58911
#       67325
#       78966
#       88447
#       100812
#       113429
#       131376
#       148778
#       162535
#       175537
#       188888
#       198174
#       207602
#       218247
#       228407
#
# Disc length: 3216 seconds
#
# Revision: 0
# Processed by: cddbd v1.4PL0 Copyright (c) Steve Scherf et al.
# Submitted via: WhereIsIt 3.25
#
DISCID=220c8e14
DTITLE=Freddy Fender - Greatest Hits
DYEAR=1900
DGENRE=
TTITLE0=Before The Next Teardrop Falls
TTITLE1=Wasted Days And Wasted Nights
TTITLE2=You'll Lose A Good Thing
TTITLE3=Almost Persuaded
TTITLE4=She's About A Mover
TTITLE5=Lovin' Cajun Style
TTITLE6=Walking Piece Of Heaven
TTITLE7=Sugar Coated Love
TTITLE8=Tell It Like It Is
TTITLE9=Rancho Grande
TTITLE10=Secret Love
TTITLE11=Jambalaya
TTITLE12=The Rains Came
TTITLE13=Mexican Rose
TTITLE14=Whiskey River
TTITLE15=Mathilda
TTITLE16=Running Back
TTITLE17=A Man Can Cry
TTITLE18=Crazy Baby
TTITLE19=Silver Wings
EXTD=
EXTT0=
EXTT1=
EXTT2=
EXTT3=
EXTT4=
EXTT5=
EXTT6=
EXTT7=
EXTT8=
EXTT9=
EXTT10=
EXTT11=
EXTT12=
EXTT13=
EXTT14=
EXTT15=
EXTT16=
EXTT17=
EXTT18=
EXTT19=
PLAYORDER=
